<svg width="42" height="42" viewBox="0 0 42 42" fill="none" xmlns="http://www.w3.org/2000/svg">
<path d="M21 0C9.40202 0 0 9.40202 0 21C0 32.598 9.40202 42 21 42C32.598 42 42 32.598 42 21C42 9.40202 32.598 0 21 0ZM21 38.5C11.3356 38.5 3.5 30.6644 3.5 21C3.5 11.3356 11.3356 3.5 21 3.5C30.6644 3.5 38.5 11.3356 38.5 21C38.5 30.6644 30.6644 38.5 21 38.5Z" fill="#FF6E19"/>
<path d="M21 7C13.268 7 7 13.268 7 21C7 28.732 13.268 35 21 35C28.732 35 35 28.732 35 21C35 13.268 28.732 7 21 7ZM21 31.5C15.2005 31.5 10.5 26.7995 10.5 21C10.5 15.2005 15.2005 10.5 21 10.5C26.7995 10.5 31.5 15.2005 31.5 21C31.5 26.7995 26.7995 31.5 21 31.5Z" fill="#FF6E19"/>
<path d="M21 14C17.134 14 14 17.134 14 21C14 24.866 17.134 28 21 28C24.866 28 28 24.866 28 21C28 17.134 24.866 14 21 14ZM21 24.5C19.067 24.5 17.5 22.933 17.5 21C17.5 19.067 19.067 17.5 21 17.5C22.933 17.5 24.5 19.067 24.5 21C24.5 22.933 22.933 24.5 21 24.5Z" fill="#FF6E19"/>
<circle cx="21" cy="21" r="3.5" fill="#FF6E19"/>
</svg>
