<svg width="43" height="42" viewBox="0 0 43 42" fill="none" xmlns="http://www.w3.org/2000/svg">
<path d="M42.0325 39.6658C41.6463 41.2788 40.6656 41.9532 39.2021 41.9673C37.5619 41.9831 35.9187 42.026 34.2818 41.9503C32.4731 41.8667 31.6476 40.9663 31.5592 39.1773C31.5534 39.0603 31.5349 38.938 31.5596 38.8265C32.4708 34.7192 30.2226 32.0868 27.3514 29.7177C26.0076 28.609 18.1034 28.202 16.8753 29.4055C16.2879 29.9811 15.9161 31.0112 15.869 31.8588C15.7361 34.2535 15.8385 36.6605 15.8155 39.0624C15.797 40.9853 14.9753 41.9146 13.0689 41.9512C9.67213 42.0164 6.27247 42.0149 2.87555 41.9549C0.92616 41.9205 0.0416634 40.9405 0.0235661 38.9324C-0.00600278 35.6519 -0.0104725 32.3705 0.0259111 29.0901C0.0478452 27.1124 0.965517 26.2358 2.96272 26.2128C5.18872 26.1872 7.41529 26.2163 9.64151 26.2033C12.1988 26.1885 13.0261 25.3738 13.0464 22.8724C13.0559 21.7007 13.0514 20.5289 13.0476 19.3572C13.0384 16.5422 12.3094 15.7956 9.54564 15.7862C7.37796 15.7788 5.20996 15.8055 3.04261 15.7773C0.942264 15.7501 0.0425475 14.8699 0.0235795 12.7863C-0.00575304 9.56434 -0.00340542 6.34173 0.0222943 3.11968C0.0392863 0.989219 0.899525 0.0640928 2.97803 0.0349954C6.31681 -0.0117444 9.65723 -0.0120465 12.996 0.0363866C14.9886 0.0652926 15.8023 0.971928 15.8173 3.01873C15.8345 5.36207 15.7989 7.70594 15.8298 10.049C15.856 12.0323 16.7656 12.9474 18.7203 12.9836C20.3602 13.014 22.0131 12.8655 23.6385 13.022C25.8179 13.2317 27.2991 12.3141 28.9042 10.9109C31.1391 8.95712 31.7663 6.74698 31.6013 3.9238C31.4094 0.639033 32.159 0.0250338 35.4339 0.0210166C36.7228 0.0194355 38.0123 -0.00342691 39.3004 0.0300727C40.9666 0.0734069 41.9543 0.970627 42.0489 2.6154C42.1496 4.36719 42.145 6.13267 42.0559 7.88554C41.9695 9.58356 41.0313 10.3999 39.3576 10.4612C39.2406 10.4655 39.1178 10.4863 39.0069 10.4601C34.5766 9.41075 32.0532 12.2747 29.5963 15.1419C29.1202 15.6975 28.9068 16.6237 28.8781 17.3904C28.7884 19.7891 28.7371 22.2005 28.8983 24.5917C28.9628 25.5492 29.5727 26.4909 30.0297 27.3914C30.2313 27.7887 30.719 28.0297 30.9941 28.4027C32.8645 30.9379 35.3048 31.8443 38.4625 31.5635C41.3397 31.3076 42.074 32.2222 42.082 35.127C42.0861 36.5914 42.0689 38.0559 42.0325 39.6658Z" fill="#FF6E19"/>
</svg>
