<svg width="72" height="54" viewBox="0 0 72 54" fill="none" xmlns="http://www.w3.org/2000/svg">
<path d="M65.916 16.5274L65.9162 16.5273L65.9114 16.5141C64.1545 11.6455 59.245 9.2429 54.4133 8.08361C49.5573 6.91849 44.609 6.96505 42.4967 7.12637L42.4965 7.12638C30.4648 8.05044 16.1812 13.6828 7.98385 24.518L7.97679 24.5273L7.97018 24.537C6.40792 26.8162 3.3457 31.6488 5.23119 37.2704L5.23106 37.2704L5.23503 37.2814C6.82758 41.6856 10.7203 43.9081 14.5935 45.0395C18.4706 46.172 22.4342 46.2445 24.3354 46.2771L24.3434 46.2772L24.3515 46.2771C39.0066 46.0566 53.2417 41.8629 63.1177 28.6765L63.1266 28.6647L63.1347 28.6523C64.5678 26.4823 67.6521 21.7982 65.916 16.5274ZM64.8579 16.871C65.7049 19.4979 65.1626 21.6592 64.5567 23.3088C63.2055 26.6634 61.1297 28.8621 58.9479 30.8295C56.752 32.7633 54.3781 34.3177 51.9367 35.7427C47.0373 38.5469 41.8947 40.7393 36.5717 42.3945C29.9085 44.3807 22.9244 45.6018 15.2881 43.4929C14.1488 43.1429 12.3907 42.5381 10.7243 41.4724C9.05874 40.4072 7.5138 38.9004 6.75317 36.7547C5.42909 32.4839 8.16202 28.5781 9.60181 26.6461C14.4667 20.5902 20.6534 17.1609 27.0285 14.4016C32.1663 12.2502 37.5355 10.741 43.1092 9.93309C48.0151 9.30634 52.9859 8.89605 58.3765 10.8709C60.3904 11.6976 63.5094 13.1949 64.8587 16.8705L64.8579 16.871Z" fill="#FF791A" stroke="#FF791A"/>
<path d="M34.4263 40.5238C30.5768 40.5238 27.3612 40.2545 24.8682 39.7191C21.5508 38.9867 19.7081 37.6498 19.3895 35.7546C19.0151 32.7427 18.8213 29.3727 18.8213 25.7597C18.8213 20.4551 19.2154 15.3082 19.9873 10.4634C20.1745 9.6423 20.5161 9.07407 21.022 8.72919C21.5573 8.3646 22.0599 8.18066 22.5164 8.18066H35.9405C38.6798 8.18066 41.1367 8.8113 43.2454 10.0496C45.3475 11.2879 47.0193 13.0812 48.2149 15.3804C49.4204 17.6961 50.028 20.5175 50.028 23.7627C50.028 28.7946 48.8226 32.8248 46.4478 35.7382C43.8497 38.9144 39.8031 40.5238 34.423 40.5238H34.4263ZM35.3657 11.9678C34.4066 11.9678 33.6807 12.201 33.211 12.6608C32.7314 13.1305 32.495 13.8892 32.495 14.983L32.518 27.4939C32.518 28.2987 32.6888 28.8997 33.0402 29.3267C33.4212 29.7964 34.1208 30.0264 35.1719 30.0264C36.6007 30.0264 37.7437 29.5402 38.5681 28.5844C39.3334 27.6943 39.882 26.5217 40.1907 25.0962C40.4896 23.7331 40.6374 22.2419 40.6374 20.662C40.6374 18.8292 40.4009 17.2625 39.9345 16.0078C39.455 14.7235 38.821 13.7283 38.0426 13.0484C37.2247 12.3356 36.3215 11.9711 35.3624 11.9711L35.3657 11.9678Z" fill="black"/>
<path d="M40.0983 34.9498C39.4315 34.9498 38.4823 34.8776 37.9699 34.2568C37.6152 33.8232 37.4444 33.2221 37.4444 32.4174L37.4214 19.9098C37.4214 18.816 37.6546 18.0573 38.1374 17.5876C38.6137 17.1212 39.3199 16.8945 40.2921 16.8945C41.2643 16.8945 42.1545 17.2558 42.9723 17.9719C43.7508 18.6518 44.3847 19.647 44.8642 20.9313C45.3306 22.186 45.5671 23.7527 45.5671 25.5855C45.5671 27.1654 45.416 28.6566 45.1204 30.0197C44.8084 31.4452 44.2631 32.6178 43.4978 33.5079C42.6734 34.4637 41.5304 34.9498 40.1016 34.9498H40.0983Z" fill="black"/>
<path d="M39.353 46.7644C35.4116 46.7644 32.104 46.4852 29.5223 45.9334C25.6202 45.0696 23.436 43.378 23.0222 40.9015L23.0156 40.8456C22.6313 37.7713 22.4375 34.352 22.4375 30.6864C22.4375 25.3096 22.8349 20.0937 23.6199 15.1833L23.6265 15.1406L23.6364 15.0979C23.8991 13.9548 24.4312 13.1041 25.213 12.572C25.9717 12.0564 26.7206 11.7969 27.4465 11.7969H40.8705C43.8463 11.7969 46.5265 12.4866 48.8422 13.8497C51.1611 15.2161 53.0004 17.1836 54.311 19.7061C55.6117 22.2123 56.2752 25.2341 56.2752 28.6927C56.2752 34.0367 54.9712 38.3428 52.3994 41.496C49.5385 44.994 45.1503 46.7644 39.3563 46.7644H39.353ZM40.2924 18.2084C39.7045 18.2084 39.2644 18.32 39.0541 18.527C38.9326 18.6452 38.7355 18.9769 38.7355 19.9098L38.7585 32.4174C38.7585 32.7524 38.7979 33.1959 38.9819 33.4225C38.9819 33.4258 39.1691 33.6393 40.0986 33.6393C41.1431 33.6393 41.9281 33.3174 42.4997 32.6539C43.1237 31.9313 43.5704 30.9525 43.8365 29.7438C44.1124 28.4726 44.2536 27.0767 44.2536 25.5888C44.2536 23.9104 44.0434 22.498 43.6328 21.3911C43.2321 20.3138 42.7197 19.4959 42.1088 18.9638C41.5307 18.458 40.9362 18.2116 40.2924 18.2116V18.2084Z" fill="black"/>
<path d="M39.7702 34.6217C39.1034 34.6217 38.1542 34.5494 37.6418 33.9287C37.2871 33.4951 37.1163 32.894 37.1163 32.0893L37.0933 19.5816C37.0933 18.4879 37.3265 17.7291 37.8093 17.2595C38.2856 16.793 38.9917 16.5664 39.964 16.5664C40.9362 16.5664 41.8263 16.9277 42.6442 17.6437C43.4226 18.3237 44.0566 19.3189 44.5361 20.6031C45.0025 21.8579 45.239 23.4246 45.239 25.2574C45.239 26.8373 45.0879 28.3285 44.7923 29.6916C44.4803 31.1171 43.935 32.2897 43.1697 33.1798C42.3453 34.1356 41.2023 34.6217 39.7735 34.6217H39.7702Z" fill="black"/>
<path d="M39.0249 46.4363C35.0834 46.4363 31.7759 46.1571 29.1942 45.6053C25.2921 44.7415 23.1079 43.0499 22.694 40.5733L22.6875 40.5175C22.3032 37.4431 22.1094 34.0239 22.1094 30.3583C22.1094 24.9815 22.5068 19.7656 23.2918 14.8551L23.2984 14.8124L23.3082 14.7697C23.571 13.6267 24.1031 12.776 24.8848 12.2439C25.6436 11.7282 26.3925 11.4688 27.1183 11.4688H40.5424C43.5182 11.4688 46.1984 12.1585 48.514 13.5216C50.8329 14.888 52.6723 16.8554 53.9829 19.378C55.2835 21.8841 55.947 24.9059 55.947 28.3646C55.947 33.7086 54.6431 38.0147 52.0712 41.1678C49.2104 44.6659 44.8222 46.4363 39.0282 46.4363H39.0249ZM39.9643 17.8802C39.3764 17.8802 38.9362 17.9919 38.726 18.1988C38.6045 18.3171 38.4074 18.6488 38.4074 19.5816L38.4304 32.0893C38.4304 32.4243 38.4698 32.8677 38.6538 33.0944C38.6538 33.0976 38.841 33.3111 39.7705 33.3111C40.815 33.3111 41.6 32.9893 42.1715 32.3258C42.7956 31.6032 43.2423 30.6244 43.5084 29.4156C43.7843 28.1445 43.9255 26.7486 43.9255 25.2607C43.9255 23.5822 43.7153 22.1699 43.3047 21.063C42.904 19.9856 42.3916 19.1678 41.7807 18.6357C41.2026 18.1299 40.6081 17.8835 39.9643 17.8835V17.8802Z" fill="black"/>
<path d="M39.4416 34.2936C38.7748 34.2936 37.8256 34.2213 37.3132 33.6005C36.9584 33.167 36.7876 32.5659 36.7876 31.7612L36.7646 19.2535C36.7646 18.1598 36.9979 17.401 37.4807 16.9313C37.9569 16.4649 38.6631 16.2383 39.6354 16.2383C40.6076 16.2383 41.4977 16.5996 42.3156 17.3156C43.094 17.9955 43.7279 18.9908 44.2075 20.275C44.6739 21.5297 44.9104 23.0965 44.9104 24.9293C44.9104 26.5091 44.7593 28.0003 44.4637 29.3634C44.1516 30.7889 43.6064 31.9615 42.8411 32.8516C42.0167 33.8075 40.8736 34.2936 39.4449 34.2936H39.4416Z" fill="black"/>
<path d="M38.6963 46.1082C34.7548 46.1082 31.4473 45.829 28.8656 45.2772C24.9635 44.4133 22.7793 42.7218 22.3654 40.2452L22.3588 40.1894C21.9746 37.115 21.7808 33.6958 21.7808 30.0302C21.7808 24.6533 22.1782 19.4375 22.9632 14.527L22.9698 14.4843L22.9796 14.4416C23.2424 13.2986 23.7745 12.4479 24.5562 11.9158C25.315 11.4001 26.0638 11.1406 26.7897 11.1406H40.2138C43.1896 11.1406 45.8698 11.8304 48.1854 13.1935C50.5043 14.5599 52.3437 16.5273 53.6542 19.0499C54.9549 21.556 55.6184 24.5778 55.6184 28.0365C55.6184 33.3805 54.3144 37.6865 51.7426 40.8397C48.8818 44.3378 44.4936 46.1082 38.6996 46.1082H38.6963ZM39.6357 17.5521C39.0478 17.5521 38.6076 17.6638 38.3974 17.8707C38.2759 17.989 38.0788 18.3207 38.0788 19.2535L38.1018 31.7612C38.1018 32.0962 38.1412 32.5396 38.3251 32.7662C38.3251 32.7695 38.5124 32.983 39.4419 32.983C40.4864 32.983 41.2714 32.6611 41.8429 31.9977C42.467 31.275 42.9137 30.2962 43.1797 29.0875C43.4556 27.8164 43.5969 26.4204 43.5969 24.9325C43.5969 23.2541 43.3867 21.8418 42.9761 20.7349C42.5754 19.6575 42.063 18.8397 41.4521 18.3076C40.874 17.8017 40.2795 17.5554 39.6357 17.5554V17.5521Z" fill="black"/>
<path d="M39.113 33.9654C38.4462 33.9654 37.497 33.8932 36.9846 33.2724C36.6298 32.8388 36.459 32.2378 36.459 31.433L36.436 18.9254C36.436 17.8316 36.6692 17.0729 37.1521 16.6032C37.6283 16.1368 38.3345 15.9102 39.3068 15.9102C40.279 15.9102 41.1691 16.2715 41.987 16.9875C42.7654 17.6674 43.3993 18.6626 43.8789 19.9469C44.3453 21.2016 44.5818 22.7683 44.5818 24.6011C44.5818 26.181 44.4307 27.6722 44.1351 29.0353C43.823 30.4608 43.2778 31.6334 42.5125 32.5235C41.6881 33.4793 40.545 33.9654 39.1162 33.9654H39.113Z" fill="black"/>
<path d="M38.3677 45.78C34.4262 45.78 31.1186 45.5009 28.537 44.949C24.6349 44.0852 22.4507 42.3937 22.0368 39.9171L22.0302 39.8612C21.6459 36.7869 21.4521 33.3676 21.4521 29.7021C21.4521 24.3252 21.8496 19.1093 22.6346 14.1989L22.6412 14.1562L22.651 14.1135C22.9138 12.9705 23.4459 12.1198 24.2276 11.5877C24.9863 11.072 25.7352 10.8125 26.4611 10.8125H39.8852C42.861 10.8125 45.5412 11.5023 47.8568 12.8654C50.1757 14.2317 52.0151 16.1992 53.3256 18.7217C54.6263 21.2279 55.2898 24.2497 55.2898 27.7083C55.2898 33.0523 53.9858 37.3584 51.414 40.5116C48.5531 44.0097 44.165 45.78 38.371 45.78H38.3677ZM39.3071 17.224C38.7191 17.224 38.279 17.3357 38.0688 17.5426C37.9473 17.6608 37.7502 17.9926 37.7502 18.9254L37.7732 31.433C37.7732 31.7681 37.8126 32.2115 37.9965 32.4381C37.9965 32.4414 38.1838 32.6549 39.1133 32.6549C40.1578 32.6549 40.9428 32.333 41.5143 31.6695C42.1384 30.9469 42.5851 29.9681 42.8511 28.7594C43.127 27.4883 43.2683 26.0923 43.2683 24.6044C43.2683 22.926 43.0581 21.5136 42.6475 20.4067C42.2468 19.3294 41.7344 18.5115 41.1234 17.9794C40.5454 17.4736 39.9509 17.2273 39.3071 17.2273V17.224Z" fill="black"/>
<path d="M38.7848 33.6363C38.1181 33.6363 37.1688 33.5641 36.6564 32.9433C36.3017 32.5097 36.1309 31.9087 36.1309 31.1039L36.1079 18.5963C36.1079 17.5025 36.3411 16.7438 36.8239 16.2741C37.3002 15.8077 38.0064 15.5811 38.9786 15.5811C39.9509 15.5811 40.841 15.9424 41.6588 16.6584C42.4373 17.3383 43.0712 18.3335 43.5507 19.6178C44.0172 20.8725 44.2536 22.4392 44.2536 24.272C44.2536 25.8519 44.1026 27.3431 43.8069 28.7062C43.4949 30.1317 42.9497 31.3043 42.1844 32.1944C41.3599 33.1502 40.2169 33.6363 38.7881 33.6363H38.7848Z" fill="black"/>
<path d="M38.0396 45.4509C34.0981 45.4509 30.7905 45.1718 28.2088 44.6199C24.3068 43.7561 22.1225 42.0646 21.7087 39.588L21.7021 39.5321C21.3178 36.4578 21.124 33.0385 21.124 29.373C21.124 23.9961 21.5215 18.7802 22.3065 13.8698L22.313 13.8271L22.3229 13.7844C22.5857 12.6414 23.1178 11.7907 23.8995 11.2586C24.6582 10.7429 25.4071 10.4834 26.133 10.4834H39.557C42.5329 10.4834 45.2131 11.1732 47.5287 12.5363C49.8476 13.9026 51.687 15.8701 52.9975 18.3926C54.2982 20.8988 54.9617 23.9206 54.9617 27.3792C54.9617 32.7232 53.6577 37.0293 51.0859 40.1825C48.225 43.6806 43.8368 45.4509 38.0429 45.4509H38.0396ZM38.979 16.8949C38.391 16.8949 37.9509 17.0066 37.7407 17.2135C37.6191 17.3317 37.4221 17.6635 37.4221 18.5963L37.4451 31.1039C37.4451 31.439 37.4845 31.8824 37.6684 32.109C37.6684 32.1123 37.8556 32.3258 38.7852 32.3258C39.8297 32.3258 40.6147 32.0039 41.1862 31.3404C41.8103 30.6178 42.257 29.639 42.523 28.4303C42.7989 27.1592 42.9401 25.7632 42.9401 24.2753C42.9401 22.5969 42.7299 21.1845 42.3194 20.0776C41.9186 19.0003 41.4063 18.1824 40.7953 17.6503C40.2172 17.1445 39.6227 16.8982 38.979 16.8982V16.8949Z" fill="black"/>
<path d="M38.4562 33.3082C37.7895 33.3082 36.8402 33.236 36.3278 32.6152C35.9731 32.1816 35.8023 31.5805 35.8023 30.7758L35.7793 18.2682C35.7793 17.1744 36.0125 16.4157 36.4953 15.946C36.9716 15.4796 37.6778 15.2529 38.65 15.2529C39.6222 15.2529 40.5124 15.6142 41.3302 16.3303C42.1087 17.0102 42.7426 18.0054 43.2221 19.2897C43.6885 20.5444 43.925 22.1111 43.925 23.9439C43.925 25.5238 43.7739 27.015 43.4783 28.3781C43.1663 29.8036 42.6211 30.9762 41.8558 31.8663C41.0313 32.8221 39.8883 33.3082 38.4595 33.3082H38.4562Z" fill="black"/>
<path d="M37.711 45.1228C33.7695 45.1228 30.4619 44.8436 27.8802 44.2918C23.9782 43.428 21.7939 41.7364 21.3801 39.2599L21.3735 39.204C20.9892 36.1297 20.7954 32.7104 20.7954 29.0448C20.7954 23.668 21.1928 18.4521 21.9779 13.5417L21.9844 13.499L21.9943 13.4563C22.257 12.3132 22.7891 11.4625 23.5709 10.9304C24.3296 10.4148 25.0785 10.1553 25.8044 10.1553H39.2284C42.2042 10.1553 44.8845 10.845 47.2001 12.2081C49.519 13.5745 51.3583 15.542 52.6689 18.0645C53.9696 20.5706 54.6331 23.5925 54.6331 27.0511C54.6331 32.3951 53.3291 36.7012 50.7573 39.8544C47.8964 43.3524 43.5082 45.1228 37.7142 45.1228H37.711ZM38.6503 16.5668C38.0624 16.5668 37.6223 16.6784 37.4121 16.8854C37.2905 17.0036 37.0935 17.3353 37.0935 18.2682L37.1164 30.7758C37.1164 31.1108 37.1559 31.5543 37.3398 31.7809C37.3398 31.7842 37.527 31.9977 38.4565 31.9977C39.501 31.9977 40.2861 31.6758 40.8576 31.0123C41.4816 30.2897 41.9283 29.3109 42.1944 28.1022C42.4703 26.831 42.6115 25.4351 42.6115 23.9472C42.6115 22.2688 42.4013 20.8564 41.9907 19.7495C41.59 18.6722 41.0776 17.8543 40.4667 17.3222C39.8886 16.8164 39.2941 16.57 38.6503 16.57V16.5668Z" fill="black"/>
<path d="M38.1276 32.9791C37.4608 32.9791 36.5116 32.9069 35.9992 32.2861C35.6445 31.8525 35.4737 31.2514 35.4737 30.4467L35.4507 17.9391C35.4507 16.8453 35.6839 16.0866 36.1667 15.6169C36.643 15.1505 37.3492 14.9238 38.3214 14.9238C39.2936 14.9238 40.1838 15.2851 41.0016 16.0012C41.7801 16.6811 42.414 17.6763 42.8935 18.9606C43.3599 20.2153 43.5964 21.782 43.5964 23.6148C43.5964 25.1947 43.4453 26.6859 43.1497 28.049C42.8377 29.4745 42.2924 30.6471 41.5271 31.5372C40.7027 32.493 39.5597 32.9791 38.1309 32.9791H38.1276Z" fill="black"/>
<path d="M37.3823 44.7937C33.4409 44.7937 30.1333 44.5145 27.5516 43.9627C23.6495 43.0989 21.4653 41.4073 21.0515 38.9308L21.0449 38.8749C20.6606 35.8006 20.4668 32.3813 20.4668 28.7157C20.4668 23.3389 20.8642 18.123 21.6492 13.2126L21.6558 13.1699L21.6657 13.1272C21.9284 11.9841 22.4605 11.1334 23.2423 10.6013C24.001 10.0857 24.7499 9.82617 25.4758 9.82617H38.8998C41.8756 9.82617 44.5558 10.5159 46.8715 11.879C49.1904 13.2454 51.0297 15.2129 52.3403 17.7354C53.641 20.2415 54.3044 23.2634 54.3044 26.722C54.3044 32.066 53.0005 36.3721 50.4287 39.5253C47.5678 43.0233 43.1796 44.7937 37.3856 44.7937H37.3823ZM38.3217 16.2377C37.7338 16.2377 37.2937 16.3493 37.0834 16.5563C36.9619 16.6745 36.7648 17.0062 36.7648 17.9391L36.7878 30.4467C36.7878 30.7817 36.8272 31.2252 37.0112 31.4518C37.0112 31.4551 37.1984 31.6686 38.1279 31.6686C39.1724 31.6686 39.9574 31.3467 40.529 30.6832C41.153 29.9606 41.5997 28.9818 41.8658 27.7731C42.1417 26.5019 42.2829 25.106 42.2829 23.6181C42.2829 21.9397 42.0727 20.5273 41.6621 19.4204C41.2614 18.3431 40.749 17.5252 40.1381 16.9931C39.56 16.4873 38.9655 16.2409 38.3217 16.2409V16.2377Z" fill="black"/>
<path d="M37.7995 32.651C37.1327 32.651 36.1835 32.5787 35.6711 31.9579C35.3163 31.5244 35.1456 30.9233 35.1456 30.1186L35.1226 17.6109C35.1226 16.5172 35.3558 15.7584 35.8386 15.2887C36.3149 14.8223 37.021 14.5957 37.9933 14.5957C38.9655 14.5957 39.8556 14.957 40.6735 15.673C41.4519 16.3529 42.0859 17.3482 42.5654 18.6324C43.0318 19.8871 43.2683 21.4539 43.2683 23.2867C43.2683 24.8666 43.1172 26.3578 42.8216 27.7209C42.5096 29.1464 41.9643 30.3189 41.199 31.2091C40.3746 32.1649 39.2316 32.651 37.8028 32.651H37.7995Z" fill="black"/>
<path d="M37.0542 44.4656C33.1127 44.4656 29.8052 44.1864 27.2235 43.6346C23.3214 42.7708 21.1372 41.0792 20.7233 38.6026L20.7168 38.5468C20.3325 35.4724 20.1387 32.0532 20.1387 28.3876C20.1387 23.0108 20.5361 17.7949 21.3211 12.8844L21.3277 12.8417L21.3375 12.799C21.6003 11.656 22.1324 10.8053 22.9141 10.2732C23.6729 9.75753 24.4218 9.49805 25.1476 9.49805H38.5717C41.5475 9.49805 44.2277 10.1878 46.5433 11.5509C48.8622 12.9173 50.7016 14.8847 52.0122 17.4073C53.3128 19.9134 53.9763 22.9352 53.9763 26.3939C53.9763 31.7379 52.6723 36.044 50.1005 39.1971C47.2397 42.6952 42.8515 44.4656 37.0575 44.4656H37.0542ZM37.9936 15.9095C37.4057 15.9095 36.9655 16.0212 36.7553 16.2281C36.6338 16.3464 36.4367 16.6781 36.4367 17.6109L36.4597 30.1186C36.4597 30.4536 36.4991 30.897 36.6831 31.1237C36.6831 31.1269 36.8703 31.3404 37.7998 31.3404C38.8443 31.3404 39.6293 31.0186 40.2008 30.3551C40.8249 29.6325 41.2716 28.6537 41.5377 27.4449C41.8136 26.1738 41.9548 24.7779 41.9548 23.29C41.9548 21.6115 41.7446 20.1992 41.334 19.0923C40.9333 18.0149 40.4209 17.1971 39.81 16.665C39.2319 16.1592 38.6374 15.9128 37.9936 15.9128V15.9095Z" fill="black"/>
<path d="M37.4709 32.3229C36.8041 32.3229 35.8549 32.2506 35.3425 31.6298C34.9877 31.1963 34.8169 30.5952 34.8169 29.7905L34.7939 17.2828C34.7939 16.1891 35.0271 15.4303 35.51 14.9606C35.9862 14.4942 36.6924 14.2676 37.6647 14.2676C38.6369 14.2676 39.527 14.6289 40.3449 15.3449C41.1233 16.0248 41.7572 17.02 42.2368 18.3043C42.7032 19.559 42.9397 21.1258 42.9397 22.9586C42.9397 24.5384 42.7886 26.0296 42.493 27.3927C42.1809 28.8182 41.6357 29.9908 40.8704 30.8809C40.046 31.8368 38.9029 32.3229 37.4742 32.3229H37.4709Z" fill="black"/>
<path d="M36.7256 44.1375C32.7841 44.1375 29.4766 43.8583 26.8949 43.3065C22.9928 42.4426 20.8086 40.7511 20.3947 38.2745L20.3881 38.2187C20.0038 35.1443 19.8101 31.7251 19.8101 28.0595C19.8101 22.6826 20.2075 17.4667 20.9925 12.5563L20.9991 12.5136L21.0089 12.4709C21.2717 11.3279 21.8038 10.4772 22.5855 9.94508C23.3443 9.4294 24.0931 9.16992 24.819 9.16992H38.2431C41.2189 9.16992 43.8991 9.85968 46.2147 11.2228C48.5336 12.5892 50.373 14.5566 51.6835 17.0792C52.9842 19.5853 53.6477 22.6071 53.6477 26.0658C53.6477 31.4098 52.3437 35.7158 49.7719 38.869C46.9111 42.3671 42.5229 44.1375 36.7289 44.1375H36.7256ZM37.665 15.5814C37.077 15.5814 36.6369 15.6931 36.4267 15.9C36.3052 16.0183 36.1081 16.35 36.1081 17.2828L36.1311 29.7905C36.1311 30.1255 36.1705 30.5689 36.3544 30.7955C36.3544 30.7988 36.5417 31.0123 37.4712 31.0123C38.5157 31.0123 39.3007 30.6904 39.8722 30.0269C40.4963 29.3043 40.943 28.3255 41.209 27.1168C41.4849 25.8457 41.6262 24.4497 41.6262 22.9618C41.6262 21.2834 41.416 19.8711 41.0054 18.7642C40.6047 17.6868 40.0923 16.869 39.4814 16.3369C38.9033 15.831 38.3088 15.5847 37.665 15.5847V15.5814Z" fill="black"/>
<path d="M37.1423 31.9938C36.4755 31.9938 35.5262 31.9215 35.0139 31.3007C34.6591 30.8672 34.4883 30.2661 34.4883 29.4614L34.4653 16.9537C34.4653 15.86 34.6985 15.1012 35.1814 14.6315C35.6576 14.1651 36.3638 13.9385 37.336 13.9385C38.3083 13.9385 39.1984 14.2998 40.0163 15.0158C40.7947 15.6957 41.4286 16.6909 41.9082 17.9752C42.3746 19.2299 42.6111 20.7967 42.6111 22.6295C42.6111 24.2093 42.46 25.7005 42.1644 27.0636C41.8523 28.4891 41.3071 29.6617 40.5418 30.5518C39.7174 31.5076 38.5743 31.9938 37.1455 31.9938H37.1423Z" fill="black"/>
<path d="M36.397 43.8084C32.4555 43.8084 29.1479 43.5292 26.5663 42.9774C22.6642 42.1135 20.48 40.422 20.0661 37.9454L20.0595 37.8896C19.6752 34.8152 19.4814 31.396 19.4814 27.7304C19.4814 22.3535 19.8789 17.1376 20.6639 12.2272L20.6705 12.1845L20.6803 12.1418C20.9431 10.9988 21.4752 10.1481 22.2569 9.61598C23.0156 9.1003 23.7645 8.84082 24.4904 8.84082H37.9145C40.8903 8.84082 43.5705 9.53058 45.8861 10.8937C48.205 12.2601 50.0444 14.2275 51.3549 16.7501C52.6556 19.2562 53.3191 22.278 53.3191 25.7367C53.3191 31.0807 52.0151 35.3867 49.4433 38.5399C46.5824 42.038 42.1943 43.8084 36.4003 43.8084H36.397ZM37.3364 15.2523C36.7484 15.2523 36.3083 15.364 36.0981 15.5709C35.9766 15.6892 35.7795 16.0209 35.7795 16.9537L35.8025 29.4614C35.8025 29.7964 35.8419 30.2398 36.0258 30.4664C36.0258 30.4697 36.213 30.6832 37.1426 30.6832C38.1871 30.6832 38.9721 30.3613 39.5436 29.6978C40.1677 28.9752 40.6144 27.9964 40.8804 26.7877C41.1563 25.5166 41.2976 24.1206 41.2976 22.6327C41.2976 20.9543 41.0874 19.542 40.6768 18.4351C40.2761 17.3577 39.7637 16.5399 39.1527 16.0078C38.5747 15.5019 37.9802 15.2556 37.3364 15.2556V15.2523Z" fill="black"/>
<path d="M36.8136 31.6656C36.1469 31.6656 35.1976 31.5934 34.6852 30.9726C34.3305 30.539 34.1597 29.938 34.1597 29.1332L34.1367 16.6256C34.1367 15.5318 34.3699 14.7731 34.8528 14.3034C35.329 13.837 36.0352 13.6104 37.0074 13.6104C37.9797 13.6104 38.8698 13.9717 39.6876 14.6877C40.4661 15.3676 41.1 16.3628 41.5796 17.6471C42.046 18.9018 42.2825 20.4685 42.2825 22.3013C42.2825 23.8812 42.1314 25.3724 41.8358 26.7355C41.5237 28.161 40.9785 29.3336 40.2132 30.2237C39.3887 31.1795 38.2457 31.6656 36.8169 31.6656H36.8136Z" fill="black"/>
<path d="M36.0684 43.4802C32.1269 43.4802 28.8193 43.2011 26.2377 42.6492C22.3356 41.7854 20.1513 40.0938 19.7375 37.6173L19.7309 37.5614C19.3466 34.4871 19.1528 31.0678 19.1528 27.4023C19.1528 22.0254 19.5503 16.8095 20.3353 11.8991L20.3418 11.8564L20.3517 11.8137C20.6145 10.6707 21.1466 9.81995 21.9283 9.28785C22.687 8.77218 23.4359 8.5127 24.1618 8.5127H37.5858C40.5617 8.5127 43.2419 9.20246 45.5575 10.5656C47.8764 11.9319 49.7158 13.8994 51.0263 16.4219C52.327 18.9281 52.9905 21.9499 52.9905 25.4085C52.9905 30.7525 51.6865 35.0586 49.1147 38.2118C46.2538 41.7099 41.8656 43.4802 36.0717 43.4802H36.0684ZM37.0078 14.9242C36.4198 14.9242 35.9797 15.0359 35.7695 15.2428C35.6479 15.361 35.4509 15.6928 35.4509 16.6256L35.4739 29.1332C35.4739 29.4683 35.5133 29.9117 35.6972 30.1383C35.6972 30.1416 35.8844 30.3551 36.814 30.3551C37.8585 30.3551 38.6435 30.0332 39.215 29.3697C39.8391 28.6471 40.2858 27.6683 40.5518 26.4596C40.8277 25.1885 40.969 23.7925 40.969 22.3046C40.969 20.6262 40.7587 19.2138 40.3482 18.1069C39.9475 17.0296 39.4351 16.2117 38.8241 15.6796C38.246 15.1738 37.6515 14.9275 37.0078 14.9275V14.9242Z" fill="black"/>
<path d="M36.4855 31.3375C35.8188 31.3375 34.8695 31.2653 34.3571 30.6445C34.0024 30.2109 33.8316 29.6098 33.8316 28.8051L33.8086 16.2975C33.8086 15.2037 34.0418 14.445 34.5246 13.9753C35.0009 13.5089 35.7071 13.2822 36.6793 13.2822C37.6515 13.2822 38.5417 13.6435 39.3595 14.3596C40.138 15.0395 40.7719 16.0347 41.2514 17.319C41.7178 18.5737 41.9543 20.1404 41.9543 21.9732C41.9543 23.5531 41.8032 25.0443 41.5076 26.4074C41.1956 27.8329 40.6504 29.0055 39.8851 29.8956C39.0606 30.8514 37.9176 31.3375 36.4888 31.3375H36.4855Z" fill="black"/>
<path d="M35.7402 43.1521C31.7988 43.1521 28.4912 42.8729 25.9095 42.3211C22.0075 41.4573 19.8232 39.7657 19.4094 37.2892L19.4028 37.2333C19.0185 34.159 18.8247 30.7397 18.8247 27.0741C18.8247 21.6973 19.2221 16.4814 20.0072 11.571L20.0137 11.5283L20.0236 11.4856C20.2863 10.3425 20.8184 9.49183 21.6002 8.95973C22.3589 8.44405 23.1078 8.18457 23.8337 8.18457H37.2577C40.2335 8.18457 42.9138 8.87433 45.2294 10.2374C47.5483 11.6038 49.3876 13.5713 50.6982 16.0938C51.9989 18.5999 52.6624 21.6218 52.6624 25.0804C52.6624 30.4244 51.3584 34.7305 48.7866 37.8837C45.9257 41.3817 41.5375 43.1521 35.7435 43.1521H35.7402ZM36.6796 14.5961C36.0917 14.5961 35.6516 14.7077 35.4414 14.9147C35.3198 15.0329 35.1228 15.3646 35.1228 16.2975L35.1457 28.8051C35.1457 29.1401 35.1852 29.5836 35.3691 29.8102C35.3691 29.8135 35.5563 30.027 36.4858 30.027C37.5303 30.027 38.3154 29.7051 38.8869 29.0416C39.5109 28.319 39.9576 27.3402 40.2237 26.1315C40.4996 24.8603 40.6408 23.4644 40.6408 21.9765C40.6408 20.2981 40.4306 18.8857 40.02 17.7788C39.6193 16.7015 39.1069 15.8836 38.496 15.3515C37.9179 14.8457 37.3234 14.5993 36.6796 14.5993V14.5961Z" fill="black"/>
<path d="M36.1569 31.0084C35.4901 31.0084 34.5409 30.9362 34.0285 30.3154C33.6738 29.8818 33.503 29.2807 33.503 28.476L33.48 15.9684C33.48 14.8746 33.7132 14.1159 34.196 13.6462C34.6723 13.1798 35.3785 12.9531 36.3507 12.9531C37.3229 12.9531 38.213 13.3144 39.0309 14.0305C39.8093 14.7104 40.4433 15.7056 40.9228 16.9899C41.3892 18.2446 41.6257 19.8113 41.6257 21.6441C41.6257 23.224 41.4746 24.7152 41.179 26.0783C40.867 27.5038 40.3217 28.6764 39.5564 29.5665C38.732 30.5223 37.589 31.0084 36.1602 31.0084H36.1569Z" fill="black"/>
<path d="M35.4116 42.823C31.4701 42.823 28.1626 42.5438 25.5809 41.992C21.6788 41.1282 19.4946 39.4366 19.0807 36.9601L19.0742 36.9042C18.6899 33.8299 18.4961 30.4106 18.4961 26.745C18.4961 21.3682 18.8935 16.1523 19.6785 11.2419L19.6851 11.1992L19.695 11.1565C19.9577 10.0134 20.4898 9.16273 21.2716 8.63063C22.0303 8.11495 22.7792 7.85547 23.5051 7.85547H36.9291C39.9049 7.85547 42.5851 8.54523 44.9008 9.90833C47.2197 11.2747 49.059 13.2422 50.3696 15.7647C51.6703 18.2708 52.3337 21.2927 52.3337 24.7513C52.3337 30.0953 51.0298 34.4014 48.458 37.5546C45.5971 41.0526 41.2089 42.823 35.4149 42.823H35.4116ZM36.351 14.267C35.7631 14.267 35.323 14.3786 35.1127 14.5856C34.9912 14.7038 34.7941 15.0355 34.7941 15.9684L34.8171 28.476C34.8171 28.811 34.8565 29.2544 35.0405 29.4811C35.0405 29.4844 35.2277 29.6979 36.1572 29.6979C37.2017 29.6979 37.9867 29.376 38.5583 28.7125C39.1823 27.9899 39.629 27.0111 39.8951 25.8024C40.171 24.5312 40.3122 23.1353 40.3122 21.6474C40.3122 19.969 40.102 18.5566 39.6914 17.4497C39.2907 16.3724 38.7783 15.5545 38.1674 15.0224C37.5893 14.5166 36.9948 14.2702 36.351 14.2702V14.267Z" fill="black"/>
<path d="M35.8283 30.6803C35.1615 30.6803 34.2123 30.608 33.6999 29.9872C33.3452 29.5537 33.1744 28.9526 33.1744 28.1479L33.1514 15.6402C33.1514 14.5465 33.3846 13.7877 33.8674 13.318C34.3437 12.8516 35.0498 12.625 36.0221 12.625C36.9943 12.625 37.8844 12.9863 38.7023 13.7023C39.4807 14.3822 40.1147 15.3775 40.5942 16.6617C41.0606 17.9164 41.2971 19.4832 41.2971 21.316C41.2971 22.8959 41.146 24.3871 40.8504 25.7501C40.5384 27.1757 39.9931 28.3482 39.2278 29.2384C38.4034 30.1942 37.2604 30.6803 35.8316 30.6803H35.8283Z" fill="black"/>
<path d="M35.083 42.4949C31.1415 42.4949 27.834 42.2157 25.2523 41.6639C21.3502 40.8 19.166 39.1085 18.7521 36.6319L18.7456 36.5761C18.3613 33.5017 18.1675 30.0825 18.1675 26.4169C18.1675 21.0401 18.5649 15.8242 19.3499 10.9137L19.3565 10.871L19.3663 10.8283C19.6291 9.68531 20.1612 8.8346 20.9429 8.3025C21.7017 7.78682 22.4506 7.52734 23.1765 7.52734H36.6005C39.5763 7.52734 42.2565 8.2171 44.5721 9.5802C46.8911 10.9466 48.7304 12.914 50.041 15.4366C51.3416 17.9427 52.0051 20.9645 52.0051 24.4232C52.0051 29.7672 50.7012 34.0732 48.1293 37.2264C45.2685 40.7245 40.8803 42.4949 35.0863 42.4949H35.083ZM36.0224 13.9388C35.4345 13.9388 34.9943 14.0505 34.7841 14.2574C34.6626 14.3757 34.4655 14.7074 34.4655 15.6402L34.4885 28.1479C34.4885 28.4829 34.5279 28.9263 34.7119 29.153C34.7119 29.1562 34.8991 29.3697 35.8286 29.3697C36.8731 29.3697 37.6581 29.0479 38.2296 28.3844C38.8537 27.6618 39.3004 26.683 39.5665 25.4742C39.8424 24.2031 39.9836 22.8072 39.9836 21.3193C39.9836 19.6408 39.7734 18.2285 39.3628 17.1216C38.9621 16.0442 38.4497 15.2264 37.8388 14.6943C37.2607 14.1885 36.6662 13.9421 36.0224 13.9421V13.9388Z" fill="black"/>
<path d="M35.5002 30.3512C34.8334 30.3512 33.8842 30.2789 33.3718 29.6581C33.017 29.2246 32.8462 28.6235 32.8462 27.8188L32.8232 15.3111C32.8232 14.2174 33.0564 13.4586 33.5393 12.9889C34.0155 12.5225 34.7217 12.2959 35.694 12.2959C36.6662 12.2959 37.5563 12.6572 38.3742 13.3732C39.1526 14.0531 39.7865 15.0484 40.2661 16.3326C40.7325 17.5873 40.969 19.1541 40.969 20.9869C40.969 22.5668 40.8179 24.0579 40.5223 25.421C40.2102 26.8465 39.665 28.0191 38.8997 28.9093C38.0753 29.8651 36.9322 30.3512 35.5035 30.3512H35.5002Z" fill="black"/>
<path d="M34.7544 42.1658C30.8129 42.1658 27.5054 41.8866 24.9237 41.3348C21.0216 40.4709 18.8374 38.7794 18.4235 36.3028L18.417 36.247C18.0327 33.1726 17.8389 29.7534 17.8389 26.0878C17.8389 20.711 18.2363 15.4951 19.0213 10.5846L19.0279 10.5419L19.0377 10.4992C19.3005 9.35621 19.8326 8.5055 20.6143 7.9734C21.3731 7.45772 22.1219 7.19824 22.8478 7.19824H36.2719C39.2477 7.19824 41.9279 7.888 44.2435 9.2511C46.5624 10.6175 48.4018 12.5849 49.7123 15.1075C51.013 17.6136 51.6765 20.6354 51.6765 24.0941C51.6765 29.4381 50.3725 33.7441 47.8007 36.8973C44.9399 40.3954 40.5517 42.1658 34.7577 42.1658H34.7544ZM35.6938 13.6097C35.1059 13.6097 34.6657 13.7214 34.4555 13.9283C34.334 14.0466 34.1369 14.3783 34.1369 15.3111L34.1599 27.8188C34.1599 28.1538 34.1993 28.5972 34.3833 28.8239C34.3833 28.8271 34.5705 29.0406 35.5 29.0406C36.5445 29.0406 37.3295 28.7188 37.901 28.0553C38.5251 27.3327 38.9718 26.3539 39.2378 25.1451C39.5138 23.874 39.655 22.4781 39.655 20.9902C39.655 19.3117 39.4448 17.8994 39.0342 16.7925C38.6335 15.7151 38.1211 14.8973 37.5102 14.3652C36.9321 13.8594 36.3376 13.613 35.6938 13.613V13.6097Z" fill="black"/>
<path d="M35.1716 30.024C34.5048 30.024 33.5555 29.9518 33.0432 29.331C32.6884 28.8974 32.5176 28.2964 32.5176 27.4916L32.4946 14.984C32.4946 13.8902 32.7278 13.1315 33.2107 12.6618C33.6869 12.1954 34.3931 11.9688 35.3653 11.9688C36.3376 11.9688 37.2277 12.3301 38.0456 13.0461C38.824 13.726 39.4579 14.7212 39.9375 16.0055C40.4039 17.2602 40.6404 18.8269 40.6404 20.6597C40.6404 22.2396 40.4893 23.7308 40.1937 25.0939C39.8816 26.5194 39.3364 27.692 38.5711 28.5821C37.7467 29.5379 36.6036 30.024 35.1748 30.024H35.1716Z" fill="black"/>
<path d="M34.4263 41.838C30.4848 41.838 27.1773 41.5588 24.5956 41.007C20.6935 40.1432 18.5093 38.4516 18.0954 35.9751L18.0888 35.9192C17.7046 32.8449 17.5108 29.4256 17.5108 25.76C17.5075 20.3832 17.9049 15.1673 18.6899 10.2569L18.6965 10.2142L18.7063 10.1715C18.9691 9.02844 19.5012 8.17773 20.2829 7.64563C21.0417 7.12667 21.7938 6.86719 22.5197 6.86719H35.9438C38.9196 6.86719 41.5998 7.55695 43.9154 8.92004C46.2343 10.2864 48.0737 12.2539 49.3842 14.7764C50.6849 17.2826 51.3484 20.3044 51.3484 23.763C51.3484 29.107 50.0444 33.4131 47.4726 36.5663C44.6118 40.0643 40.2236 41.8347 34.4296 41.8347L34.4263 41.838ZM35.3657 13.282C34.7778 13.282 34.3376 13.3936 34.1274 13.6006C34.0059 13.7188 33.8088 14.0505 33.8088 14.9834L33.8318 27.491C33.8318 27.826 33.8712 28.2695 34.0552 28.4961C34.0552 28.4994 34.2424 28.7129 35.1719 28.7129C36.2164 28.7129 37.0014 28.391 37.5729 27.7275C38.197 27.0049 38.6437 26.0261 38.9097 24.8174C39.1857 23.5462 39.3269 22.1503 39.3269 20.6624C39.3269 18.984 39.1167 17.5716 38.7061 16.4647C38.3054 15.3874 37.793 14.5695 37.1821 14.0374C36.604 13.5316 36.0095 13.2852 35.3657 13.2852V13.282Z" fill="black"/>
<path d="M40.0994 33.6366C39.1699 33.6366 38.9925 33.4297 38.986 33.4231C38.8414 33.2458 38.7593 32.8877 38.7593 32.418L38.7363 19.9071C38.7363 18.9776 38.9367 18.6425 39.0549 18.5276C39.2684 18.3207 39.6954 18.209 40.2932 18.209C40.937 18.209 41.5315 18.4553 42.1096 18.9612C42.7205 19.4933 43.2329 20.3111 43.6336 21.3884C44.0442 22.4953 44.2544 23.9077 44.2544 25.5861C44.2544 27.0708 44.1132 28.47 43.8373 29.7411C43.5745 30.9498 43.1245 31.9286 42.5004 32.6512C41.9289 33.3147 41.1439 33.6366 40.0994 33.6366Z" fill="black"/>
<path d="M39.3535 45.4506C35.504 45.4506 32.2884 45.1813 29.7954 44.6459C26.478 43.9134 24.6354 42.5766 24.3168 40.6814C23.9423 37.6694 23.7485 34.2995 23.7485 30.6864C23.7485 25.3819 24.1427 20.2349 24.9146 15.3902C25.1018 14.5691 25.4434 14.0008 25.9492 13.6559C26.4846 13.2914 26.9871 13.1074 27.4437 13.1074H40.8677C43.6071 13.1074 46.0639 13.7381 48.1726 14.9763C50.2747 16.2146 51.9466 18.008 53.1422 20.3072C54.3476 22.6228 54.9552 25.4443 54.9552 28.6894C54.9552 33.7214 53.7498 37.7516 51.3751 40.665C48.777 43.8412 44.7304 45.4506 39.3502 45.4506H39.3535ZM40.2929 16.8945C39.3338 16.8945 38.6079 17.1277 38.1382 17.5876C37.6587 18.0573 37.4222 18.816 37.4222 19.9098L37.4452 32.4207C37.4452 33.2254 37.616 33.8265 37.9674 34.2535C38.3485 34.7232 39.0481 34.9531 40.0991 34.9531C41.5279 34.9531 42.671 34.467 43.4954 33.5112C44.2607 32.6211 44.8092 31.4485 45.118 30.023C45.4169 28.6599 45.5647 27.1687 45.5647 25.5888C45.5647 23.756 45.3282 22.1893 44.8618 20.9346C44.3822 19.6503 43.7483 18.6551 42.9698 17.9752C42.152 17.2624 41.2487 16.8978 40.2896 16.8978L40.2929 16.8945Z" fill="black"/>
<path d="M39.7708 33.3085C38.8413 33.3085 38.6639 33.1016 38.6573 33.095C38.5128 32.9176 38.4307 32.5596 38.4307 32.0899L38.4077 19.579C38.4077 18.6494 38.6081 18.3144 38.7263 18.1995C38.9398 17.9925 39.3668 17.8809 39.9646 17.8809C40.6084 17.8809 41.2029 18.1272 41.781 18.633C42.3919 19.1651 42.9043 19.983 43.305 21.0603C43.7156 22.1672 43.9258 23.5796 43.9258 25.258C43.9258 26.7426 43.7846 28.1419 43.5087 29.413C43.2459 30.6217 42.7959 31.6005 42.1718 32.3231C41.6003 32.9866 40.8153 33.3085 39.7708 33.3085Z" fill="black"/>
<path d="M39.0249 45.1225C35.1754 45.1225 31.9598 44.8531 29.4668 44.3178C26.1494 43.5853 24.3068 42.2485 23.9882 40.3533C23.6137 37.3413 23.4199 33.9714 23.4199 30.3583C23.4199 25.0537 23.8141 19.9068 24.5859 15.0621C24.7732 14.2409 25.1148 13.6727 25.6206 13.3278C26.156 12.9632 26.6585 12.7793 27.1151 12.7793H40.5391C43.2784 12.7793 45.7353 13.4099 47.844 14.6482C49.9461 15.8865 51.618 17.6799 52.8136 19.9791C54.019 22.2947 54.6266 25.1161 54.6266 28.3613C54.6266 33.3933 53.4212 37.4234 51.0465 40.3369C48.4484 43.513 44.4018 45.1225 39.0216 45.1225H39.0249ZM39.9643 16.5664C39.0052 16.5664 38.2793 16.7996 37.8096 17.2595C37.3301 17.7291 37.0936 18.4879 37.0936 19.5816L37.1166 32.0926C37.1166 32.8973 37.2874 33.4984 37.6388 33.9254C38.0198 34.3951 38.7195 34.625 39.7705 34.625C41.1993 34.625 42.3423 34.1389 43.1668 33.1831C43.9321 32.2929 44.4806 31.1203 44.7893 29.6948C45.0882 28.3317 45.236 26.8405 45.236 25.2607C45.236 23.4279 44.9996 21.8611 44.5331 20.6064C44.0536 19.3222 43.4197 18.3269 42.6412 17.647C41.8234 16.9343 40.9201 16.5697 39.961 16.5697L39.9643 16.5664Z" fill="black"/>
<path d="M39.4427 32.9804C38.5132 32.9804 38.3358 32.7734 38.3292 32.7669C38.1847 32.5895 38.1026 32.2315 38.1026 31.7618L38.0796 19.2509C38.0796 18.3213 38.2799 17.9863 38.3982 17.8713C38.6117 17.6644 39.0387 17.5527 39.6365 17.5527C40.2803 17.5527 40.8748 17.7991 41.4528 18.3049C42.0638 18.837 42.5762 19.6549 42.9769 20.7322C43.3875 21.8391 43.5977 23.2515 43.5977 24.9299C43.5977 26.4145 43.4564 27.8137 43.1805 29.0849C42.9178 30.2936 42.4678 31.2724 41.8437 31.995C41.2722 32.6585 40.4872 32.9804 39.4427 32.9804Z" fill="black"/>
<path d="M38.6968 44.7944C34.8473 44.7944 31.6317 44.525 29.1387 43.9896C25.8213 43.2572 23.9786 41.9203 23.66 40.0252C23.2856 37.0132 23.0918 33.6432 23.0918 30.0302C23.0918 24.7256 23.4859 19.5787 24.2578 14.7339C24.445 13.9128 24.7866 13.3446 25.2925 12.9997C25.8278 12.6351 26.3304 12.4512 26.7869 12.4512H40.211C42.9503 12.4512 45.4072 13.0818 47.5159 14.3201C49.618 15.5584 51.2898 17.3518 52.4854 19.651C53.6909 21.9666 54.2985 24.788 54.2985 28.0332C54.2985 33.0651 53.0931 37.0953 50.7183 40.0087C48.1202 43.1849 44.0736 44.7944 38.6935 44.7944H38.6968ZM39.6362 16.2383C38.6771 16.2383 37.9512 16.4715 37.4815 16.9313C37.002 17.401 36.7655 18.1598 36.7655 19.2535L36.7885 31.7645C36.7885 32.5692 36.9593 33.1702 37.3107 33.5972C37.6917 34.0669 38.3913 34.2969 39.4424 34.2969C40.8712 34.2969 42.0142 33.8107 42.8386 32.8549C43.6039 31.9648 44.1525 30.7922 44.4612 29.3667C44.7601 28.0036 44.9079 26.5124 44.9079 24.9325C44.9079 23.0998 44.6714 21.533 44.205 20.2783C43.7255 18.994 43.0916 17.9988 42.3131 17.3189C41.4952 16.6062 40.592 16.2416 39.6329 16.2416L39.6362 16.2383Z" fill="black"/>
<path d="M39.1141 32.6513C38.1845 32.6513 38.0072 32.4443 38.0006 32.4378C37.8561 32.2604 37.774 31.9024 37.774 31.4327L37.751 18.9218C37.751 17.9922 37.9513 17.6572 38.0696 17.5422C38.2831 17.3353 38.7101 17.2236 39.3079 17.2236C39.9516 17.2236 40.5461 17.47 41.1242 17.9758C41.7352 18.5079 42.2476 19.3258 42.6483 20.4031C43.0588 21.51 43.2691 22.9224 43.2691 24.6008C43.2691 26.0854 43.1278 27.4846 42.8519 28.7558C42.5892 29.9645 42.1392 30.9433 41.5151 31.6659C40.9436 32.3294 40.1586 32.6513 39.1141 32.6513Z" fill="black"/>
<path d="M38.3682 44.4652C34.5187 44.4652 31.3031 44.1959 28.8101 43.6605C25.4927 42.9281 23.65 41.5912 23.3314 39.696C22.957 36.6841 22.7632 33.3141 22.7632 29.7011C22.7632 24.3965 23.1573 19.2496 23.9292 14.4048C24.1164 13.5837 24.458 13.0155 24.9638 12.6706C25.4992 12.306 26.0018 12.1221 26.4583 12.1221H39.8824C42.6217 12.1221 45.0786 12.7527 47.1873 13.991C49.2894 15.2293 50.9612 17.0227 52.1568 19.3219C53.3623 21.6375 53.9699 24.4589 53.9699 27.7041C53.9699 32.736 52.7645 36.7662 50.3897 39.6796C47.7916 42.8558 43.745 44.4652 38.3649 44.4652H38.3682ZM39.3076 15.9092C38.3485 15.9092 37.6226 16.1424 37.1529 16.6022C36.6733 17.0719 36.4369 17.8307 36.4369 18.9244L36.4598 31.4354C36.4598 32.2401 36.6306 32.8411 36.9821 33.2681C37.3631 33.7378 38.0627 33.9678 39.1138 33.9678C40.5426 33.9678 41.6856 33.4816 42.51 32.5258C43.2753 31.6357 43.8239 30.4631 44.1326 29.0376C44.4315 27.6745 44.5793 26.1833 44.5793 24.6034C44.5793 22.7707 44.3428 21.2039 43.8764 19.9492C43.3969 18.6649 42.7629 17.6697 41.9845 16.9898C41.1666 16.2771 40.2634 15.9125 39.3043 15.9125L39.3076 15.9092Z" fill="black"/>
<path d="M38.7859 32.3231C37.8564 32.3231 37.679 32.1162 37.6725 32.1096C37.528 31.9323 37.4458 31.5743 37.4458 31.1046L37.4229 18.5936C37.4229 17.6641 37.6232 17.3291 37.7415 17.2141C37.955 17.0072 38.3819 16.8955 38.9797 16.8955C39.6235 16.8955 40.218 17.1419 40.7961 17.6477C41.407 18.1798 41.9194 18.9976 42.3201 20.075C42.7307 21.1819 42.9409 22.5942 42.9409 24.2727C42.9409 25.7573 42.7997 27.1565 42.5238 28.4276C42.261 29.6364 41.811 30.6152 41.187 31.3378C40.6155 32.0013 39.8304 32.3231 38.7859 32.3231Z" fill="black"/>
<path d="M38.0401 44.1371C34.1905 44.1371 30.9749 43.8678 28.482 43.3324C25.1645 42.5999 23.3219 41.2631 23.0033 39.3679C22.6288 36.356 22.4351 32.986 22.4351 29.373C22.4351 24.0684 22.8292 18.9215 23.6011 14.0767C23.7883 13.2556 24.1299 12.6873 24.6357 12.3425C25.1711 11.9779 25.6736 11.7939 26.1302 11.7939H39.5542C42.2936 11.7939 44.7504 12.4246 46.8591 13.6629C48.9613 14.9012 50.6331 16.6945 51.8287 18.9937C53.0341 21.3093 53.6418 24.1308 53.6418 27.376C53.6418 32.4079 52.4363 36.4381 50.0616 39.3515C47.4635 42.5277 43.4169 44.1371 38.0368 44.1371H38.0401ZM38.9794 15.5811C38.0204 15.5811 37.2945 15.8143 36.8248 16.2741C36.3452 16.7438 36.1087 17.5025 36.1087 18.5963L36.1317 31.1072C36.1317 31.9119 36.3025 32.513 36.654 32.94C37.035 33.4097 37.7346 33.6396 38.7857 33.6396C40.2144 33.6396 41.3575 33.1535 42.1819 32.1977C42.9472 31.3076 43.4957 30.135 43.8045 28.7095C44.1034 27.3464 44.2512 25.8552 44.2512 24.2753C44.2512 22.4425 44.0147 20.8758 43.5483 19.6211C43.0687 18.3368 42.4348 17.3416 41.6564 16.6617C40.8385 15.9489 39.9353 15.5843 38.9762 15.5843L38.9794 15.5811Z" fill="black"/>
<path d="M38.4573 31.994C37.5278 31.994 37.3504 31.7871 37.3439 31.7805C37.1993 31.6032 37.1172 31.2452 37.1172 30.7755L37.0942 18.2645C37.0942 17.335 37.2946 17 37.4128 16.885C37.6263 16.6781 38.0533 16.5664 38.6511 16.5664C39.2949 16.5664 39.8894 16.8127 40.4675 17.3186C41.0784 17.8507 41.5908 18.6685 41.9915 19.7459C42.4021 20.8528 42.6123 22.2651 42.6123 23.9436C42.6123 25.4282 42.4711 26.8274 42.1952 28.0985C41.9324 29.3073 41.4824 30.2861 40.8584 31.0087C40.2868 31.6721 39.5018 31.994 38.4573 31.994Z" fill="black"/>
<path d="M37.7114 43.808C33.8619 43.808 30.6463 43.5387 28.1533 43.0033C24.8359 42.2708 22.9933 40.934 22.6747 39.0388C22.3002 36.0269 22.1064 32.6569 22.1064 29.0439C22.1064 23.7393 22.5006 18.5924 23.2725 13.7476C23.4597 12.9265 23.8013 12.3582 24.3071 12.0134C24.8425 11.6488 25.345 11.4648 25.8016 11.4648H39.2256C41.965 11.4648 44.4218 12.0955 46.5305 13.3338C48.6326 14.572 50.3045 16.3654 51.5001 18.6646C52.7055 20.9802 53.3132 23.8017 53.3132 27.0469C53.3132 32.0788 52.1077 36.109 49.733 39.0224C47.1349 42.1986 43.0883 43.808 37.7082 43.808H37.7114ZM38.6508 15.252C37.6917 15.252 36.9658 15.4852 36.4962 15.945C36.0166 16.4147 35.7801 17.1734 35.7801 18.2672L35.8031 30.7781C35.8031 31.5828 35.9739 32.1839 36.3254 32.6109C36.7064 33.0806 37.406 33.3105 38.457 33.3105C39.8858 33.3105 41.0289 32.8244 41.8533 31.8686C42.6186 30.9785 43.1671 29.8059 43.4759 28.3804C43.7748 27.0173 43.9226 25.5261 43.9226 23.9462C43.9226 22.1134 43.6861 20.5467 43.2197 19.292C42.7401 18.0077 42.1062 17.0125 41.3278 16.3326C40.5099 15.6198 39.6066 15.2552 38.6475 15.2552L38.6508 15.252Z" fill="black"/>
<path d="M38.1287 31.6659C37.1992 31.6659 37.0218 31.459 37.0153 31.4524C36.8707 31.275 36.7886 30.917 36.7886 30.4473L36.7656 17.9364C36.7656 17.0069 36.966 16.6718 37.0842 16.5569C37.2977 16.35 37.7247 16.2383 38.3225 16.2383C38.9663 16.2383 39.5608 16.4846 40.1389 16.9904C40.7498 17.5225 41.2622 18.3404 41.6629 19.4177C42.0735 20.5246 42.2837 21.937 42.2837 23.6154C42.2837 25.1001 42.1425 26.4993 41.8666 27.7704C41.6038 28.9791 41.1538 29.9579 40.5297 30.6805C39.9582 31.344 39.1732 31.6659 38.1287 31.6659Z" fill="black"/>
<path d="M37.3828 43.4799C33.5333 43.4799 30.3177 43.2106 27.8247 42.6752C24.5073 41.9427 22.6647 40.6059 22.3461 38.7107C21.9716 35.6987 21.7778 32.3288 21.7778 28.7157C21.7778 23.4112 22.172 18.2642 22.9439 13.4195C23.1311 12.5984 23.4727 12.0301 23.9785 11.6852C24.5139 11.3207 25.0164 11.1367 25.473 11.1367H38.897C41.6364 11.1367 44.0932 11.7674 46.2019 13.0056C48.304 14.2439 49.9759 16.0373 51.1715 18.3365C52.3769 20.6521 52.9845 23.4736 52.9845 26.7187C52.9845 31.7507 51.7791 35.7809 49.4044 38.6943C46.8063 41.8705 42.7597 43.4799 37.3795 43.4799H37.3828ZM38.3222 14.9238C37.3631 14.9238 36.6372 15.157 36.1675 15.6169C35.688 16.0866 35.4515 16.8453 35.4515 17.9391L35.4745 30.45C35.4745 31.2547 35.6453 31.8558 35.9967 32.2828C36.3778 32.7525 37.0774 32.9824 38.1284 32.9824C39.5572 32.9824 40.7002 32.4963 41.5247 31.5405C42.29 30.6504 42.8385 29.4778 43.1473 28.0523C43.4461 26.6892 43.594 25.198 43.594 23.6181C43.594 21.7853 43.3575 20.2186 42.8911 18.9639C42.4115 17.6796 41.7776 16.6844 40.9991 16.0045C40.1813 15.2917 39.278 14.9271 38.3189 14.9271L38.3222 14.9238Z" fill="black"/>
<path d="M37.8006 31.3378C36.8711 31.3378 36.6937 31.1309 36.6871 31.1243C36.5426 30.9469 36.4605 30.5889 36.4605 30.1192L36.4375 17.6083C36.4375 16.6787 36.6379 16.3437 36.7561 16.2288C36.9696 16.0218 37.3966 15.9102 37.9944 15.9102C38.6382 15.9102 39.2327 16.1565 39.8108 16.6623C40.4217 17.1944 40.9341 18.0123 41.3348 19.0896C41.7454 20.1965 41.9556 21.6089 41.9556 23.2873C41.9556 24.7719 41.8143 26.1712 41.5384 27.4423C41.2757 28.651 40.8257 29.6298 40.2016 30.3524C39.6301 31.0159 38.8451 31.3378 37.8006 31.3378Z" fill="black"/>
<path d="M37.0547 43.1518C33.2052 43.1518 29.9896 42.8824 27.4966 42.3471C24.1792 41.6146 22.3365 40.2778 22.0179 38.3826C21.6435 35.3706 21.4497 32.0006 21.4497 28.3876C21.4497 23.083 21.8439 17.9361 22.6157 13.0914C22.803 12.2702 23.1445 11.702 23.6504 11.3571C24.1858 10.9925 24.6883 10.8086 25.1448 10.8086H38.5689C41.3082 10.8086 43.7651 11.4392 45.8738 12.6775C47.9759 13.9158 49.6478 15.7092 50.8433 18.0084C52.0488 20.324 52.6564 23.1454 52.6564 26.3906C52.6564 31.4226 51.451 35.4527 49.0762 38.3662C46.4781 41.5423 42.4315 43.1518 37.0514 43.1518H37.0547ZM37.9941 14.5957C37.035 14.5957 36.3091 14.8289 35.8394 15.2887C35.3599 15.7584 35.1234 16.5172 35.1234 17.6109L35.1464 30.1219C35.1464 30.9266 35.3172 31.5277 35.6686 31.9547C36.0496 32.4244 36.7492 32.6543 37.8003 32.6543C39.2291 32.6543 40.3721 32.1682 41.1966 31.2124C41.9619 30.3222 42.5104 29.1496 42.8191 27.7241C43.118 26.361 43.2658 24.8698 43.2658 23.29C43.2658 21.4572 43.0293 19.8904 42.5629 18.6357C42.0834 17.3515 41.4495 16.3562 40.671 15.6763C39.8532 14.9636 38.9499 14.599 37.9908 14.599L37.9941 14.5957Z" fill="black"/>
<path d="M37.472 31.0087C36.5424 31.0087 36.3651 30.8018 36.3585 30.7952C36.214 30.6178 36.1319 30.2598 36.1319 29.7901L36.1089 17.2792C36.1089 16.3496 36.3092 16.0146 36.4275 15.8997C36.641 15.6927 37.068 15.5811 37.6658 15.5811C38.3095 15.5811 38.9041 15.8274 39.4821 16.3332C40.0931 16.8653 40.6055 17.6832 41.0062 18.7605C41.4168 19.8674 41.627 21.2798 41.627 22.9582C41.627 24.4428 41.4857 25.8421 41.2098 27.1132C40.9471 28.3219 40.4971 29.3007 39.873 30.0233C39.3015 30.6868 38.5165 31.0087 37.472 31.0087Z" fill="black"/>
<path d="M36.7261 42.8227C32.8766 42.8227 29.661 42.5533 27.168 42.0179C23.8506 41.2855 22.0079 39.9487 21.6893 38.0535C21.3149 35.0415 21.1211 31.6715 21.1211 28.0585C21.1211 22.7539 21.5152 17.607 22.2871 12.7623C22.4743 11.9411 22.8159 11.3729 23.3218 11.028C23.8571 10.6634 24.3597 10.4795 24.8162 10.4795H38.2403C40.9796 10.4795 43.4365 11.1101 45.5452 12.3484C47.6473 13.5867 49.3191 15.3801 50.5147 17.6793C51.7202 19.9949 52.3278 22.8163 52.3278 26.0615C52.3278 31.0935 51.1224 35.1236 48.7476 38.037C46.1495 41.2132 42.1029 42.8227 36.7228 42.8227H36.7261ZM37.6655 14.2666C36.7064 14.2666 35.9805 14.4998 35.5108 14.9596C35.0313 15.4293 34.7948 16.1881 34.7948 17.2818L34.8178 29.7928C34.8178 30.5975 34.9886 31.1986 35.34 31.6256C35.721 32.0953 36.4206 32.3252 37.4717 32.3252C38.9005 32.3252 40.0435 31.8391 40.8679 30.8833C41.6332 29.9931 42.1818 28.8205 42.4905 27.395C42.7894 26.0319 42.9372 24.5407 42.9372 22.9609C42.9372 21.1281 42.7007 19.5613 42.2343 18.3066C41.7548 17.0224 41.1208 16.0271 40.3424 15.3472C39.5245 14.6345 38.6213 14.2699 37.6622 14.2699L37.6655 14.2666Z" fill="black"/>
<path d="M37.1434 30.6796C36.2138 30.6796 36.0365 30.4727 36.0299 30.4661C35.8854 30.2887 35.8033 29.9307 35.8033 29.461L35.7803 16.9501C35.7803 16.0205 35.9806 15.6855 36.0989 15.5706C36.3124 15.3636 36.7394 15.252 37.3372 15.252C37.9809 15.252 38.5754 15.4983 39.1535 16.0041C39.7645 16.5362 40.2769 17.3541 40.6776 18.4314C41.0881 19.5383 41.2984 20.9507 41.2984 22.6291C41.2984 24.1137 41.1571 25.513 40.8812 26.7841C40.6184 27.9928 40.1685 28.9716 39.5444 29.6942C38.9729 30.3577 38.1879 30.6796 37.1434 30.6796Z" fill="black"/>
<path d="M36.3975 42.4945C32.548 42.4945 29.3324 42.2252 26.8394 41.6898C23.522 40.9574 21.6793 39.6205 21.3607 37.7253C20.9863 34.7134 20.7925 31.3434 20.7925 27.7304C20.7925 22.4258 21.1866 17.2789 21.9585 12.4341C22.1457 11.613 22.4873 11.0448 22.9931 10.6999C23.5285 10.3353 24.0311 10.1514 24.4876 10.1514H37.9117C40.651 10.1514 43.1079 10.782 45.2166 12.0203C47.3187 13.2586 48.9905 15.0519 50.1861 17.3511C51.3915 19.6668 51.9992 22.4882 51.9992 25.7334C51.9992 30.7653 50.7938 34.7955 48.419 37.7089C45.8209 40.8851 41.7743 42.4945 36.3942 42.4945H36.3975ZM37.3369 13.9385C36.3778 13.9385 35.6519 14.1717 35.1822 14.6315C34.7026 15.1012 34.4662 15.86 34.4662 16.9537L34.4891 29.4647C34.4891 30.2694 34.6599 30.8704 35.0114 31.2974C35.3924 31.7671 36.092 31.9971 37.1431 31.9971C38.5719 31.9971 39.7149 31.5109 40.5393 30.5551C41.3046 29.665 41.8532 28.4924 42.1619 27.0669C42.4608 25.7038 42.6086 24.2126 42.6086 22.6327C42.6086 20.7999 42.3721 19.2332 41.9057 17.9785C41.4262 16.6942 40.7922 15.699 40.0138 15.0191C39.1959 14.3064 38.2927 13.9418 37.3336 13.9418L37.3369 13.9385Z" fill="black"/>
<path d="M36.8148 30.3524C35.8852 30.3524 35.7079 30.1455 35.7013 30.1389C35.5568 29.9616 35.4747 29.6036 35.4747 29.1339L35.4517 16.6229C35.4517 15.6934 35.652 15.3584 35.7703 15.2434C35.9838 15.0365 36.4108 14.9248 37.0085 14.9248C37.6523 14.9248 38.2468 15.1711 38.8249 15.677C39.4358 16.2091 39.9482 17.0269 40.349 18.1043C40.7595 19.2112 40.9697 20.6235 40.9697 22.302C40.9697 23.7866 40.8285 25.1858 40.5526 26.4569C40.2898 27.6657 39.8398 28.6445 39.2158 29.3671C38.6443 30.0305 37.8593 30.3524 36.8148 30.3524Z" fill="black"/>
<path d="M36.0689 42.1664C32.2193 42.1664 29.0038 41.8971 26.5108 41.3617C23.1933 40.6292 21.3507 39.2924 21.0321 37.3972C20.6577 34.3853 20.4639 31.0153 20.4639 27.4023C20.4639 22.0977 20.858 16.9508 21.6299 12.106C21.8171 11.2849 22.1587 10.7166 22.6645 10.3718C23.1999 10.0072 23.7025 9.82324 24.159 9.82324H37.5831C40.3224 9.82324 42.7792 10.4539 44.8879 11.6922C46.9901 12.9304 48.6619 14.7238 49.8575 17.023C51.0629 19.3386 51.6706 22.1601 51.6706 25.4053C51.6706 30.4372 50.4651 34.4674 48.0904 37.3808C45.4923 40.557 41.4457 42.1664 36.0656 42.1664H36.0689ZM37.0083 13.6104C36.0492 13.6104 35.3233 13.8436 34.8536 14.3034C34.374 14.7731 34.1375 15.5318 34.1375 16.6256L34.1605 29.1365C34.1605 29.9412 34.3313 30.5423 34.6828 30.9693C35.0638 31.439 35.7634 31.6689 36.8145 31.6689C38.2433 31.6689 39.3863 31.1828 40.2107 30.227C40.976 29.3369 41.5245 28.1643 41.8333 26.7388C42.1322 25.3757 42.28 23.8845 42.28 22.3046C42.28 20.4718 42.0435 18.9051 41.5771 17.6504C41.0975 16.3661 40.4636 15.3709 39.6852 14.691C38.8673 13.9782 37.9641 13.6136 37.005 13.6136L37.0083 13.6104Z" fill="black"/>
<path d="M36.4861 30.0243C35.5566 30.0243 35.3792 29.8174 35.3727 29.8108C35.2282 29.6334 35.146 29.2754 35.146 28.8057L35.123 16.2948C35.123 15.3653 35.3234 15.0302 35.4416 14.9153C35.6551 14.7084 36.0821 14.5967 36.6799 14.5967C37.3237 14.5967 37.9182 14.843 38.4963 15.3488C39.1072 15.8809 39.6196 16.6988 40.0203 17.7761C40.4309 18.883 40.6411 20.2954 40.6411 21.9738C40.6411 23.4585 40.4999 24.8577 40.224 26.1288C39.9612 27.3375 39.5112 28.3163 38.8872 29.0389C38.3156 29.7024 37.5306 30.0243 36.4861 30.0243Z" fill="black"/>
<path d="M35.7403 41.8383C31.8907 41.8383 28.6751 41.569 26.1821 41.0336C22.8647 40.3011 21.0221 38.9643 20.7035 37.0691C20.329 34.0571 20.1353 30.6872 20.1353 27.0741C20.1353 21.7696 20.5294 16.6226 21.3013 11.7779C21.4885 10.9568 21.8301 10.3885 22.3359 10.0436C22.8713 9.67905 23.3738 9.49512 23.8304 9.49512H37.2544C39.9938 9.49512 42.4506 10.1258 44.5593 11.364C46.6615 12.6023 48.3333 14.3957 49.5289 16.6949C50.7343 19.0105 51.342 21.832 51.342 25.0771C51.342 30.1091 50.1365 34.1393 47.7618 37.0527C45.1637 40.2289 41.1171 41.8383 35.737 41.8383H35.7403ZM36.6796 13.2822C35.7205 13.2822 34.9947 13.5154 34.525 13.9753C34.0454 14.445 33.8089 15.2037 33.8089 16.2975L33.8319 28.8084C33.8319 29.6131 34.0027 30.2142 34.3542 30.6412C34.7352 31.1109 35.4348 31.3408 36.4859 31.3408C37.9146 31.3408 39.0577 30.8547 39.8821 29.8989C40.6474 29.0088 41.1959 27.8362 41.5047 26.4107C41.8036 25.0476 41.9514 23.5564 41.9514 21.9765C41.9514 20.1437 41.7149 18.577 41.2485 17.3223C40.7689 16.038 40.135 15.0428 39.3566 14.3629C38.5387 13.6501 37.6355 13.2855 36.6764 13.2855L36.6796 13.2822Z" fill="black"/>
<path d="M36.158 29.6952C35.2285 29.6952 35.0511 29.4883 35.0445 29.4817C34.9 29.3043 34.8179 28.9463 34.8179 28.4766L34.7949 15.9657C34.7949 15.0362 34.9953 14.7011 35.1135 14.5862C35.327 14.3793 35.754 14.2676 36.3518 14.2676C36.9956 14.2676 37.5901 14.5139 38.1682 15.0197C38.7791 15.5518 39.2915 16.3697 39.6922 17.447C40.1028 18.5539 40.313 19.9663 40.313 21.6447C40.313 23.1294 40.1718 24.5286 39.8959 25.7997C39.6331 27.0084 39.1831 27.9872 38.559 28.7098C37.9875 29.3733 37.2025 29.6952 36.158 29.6952Z" fill="black"/>
<path d="M35.4121 41.5092C31.5626 41.5092 28.347 41.2399 25.854 40.7045C22.5366 39.972 20.694 38.6352 20.3754 36.74C20.0009 33.728 19.8071 30.3581 19.8071 26.745C19.8071 21.4405 20.2013 16.2935 20.9732 11.4488C21.1604 10.6276 21.502 10.0594 22.0078 9.71454C22.5432 9.34995 23.0457 9.16602 23.5023 9.16602H36.9263C39.6656 9.16602 42.1225 9.79665 44.2312 11.0349C46.3333 12.2732 48.0052 14.0666 49.2008 16.3658C50.4062 18.6814 51.0138 21.5029 51.0138 24.748C51.0138 29.78 49.8084 33.8102 47.4337 36.7236C44.8356 39.8998 40.789 41.5092 35.4088 41.5092H35.4121ZM36.3515 12.9531C35.3924 12.9531 34.6665 13.1863 34.1968 13.6462C33.7173 14.1159 33.4808 14.8746 33.4808 15.9684L33.5038 28.4793C33.5038 29.284 33.6746 29.8851 34.026 30.3121C34.407 30.7818 35.1067 31.0117 36.1577 31.0117C37.5865 31.0117 38.7295 30.5256 39.554 29.5698C40.3193 28.6797 40.8678 27.5071 41.1766 26.0816C41.4754 24.7185 41.6233 23.2273 41.6233 21.6474C41.6233 19.8146 41.3868 18.2479 40.9204 16.9932C40.4408 15.7089 39.8069 14.7137 39.0284 14.0338C38.2106 13.321 37.3073 12.9564 36.3482 12.9564L36.3515 12.9531Z" fill="black"/>
<path d="M35.8299 29.3671C34.9004 29.3671 34.723 29.1602 34.7164 29.1536C34.5719 28.9762 34.4898 28.6182 34.4898 28.1485L34.4668 15.6376C34.4668 14.708 34.6672 14.373 34.7854 14.2581C34.9989 14.0511 35.4259 13.9395 36.0237 13.9395C36.6675 13.9395 37.262 14.1858 37.8401 14.6916C38.451 15.2237 38.9634 16.0416 39.3641 17.1189C39.7747 18.2258 39.9849 19.6382 39.9849 21.3166C39.9849 22.8012 39.8436 24.2005 39.5677 25.4716C39.305 26.6803 38.855 27.6591 38.2309 28.3817C37.6594 29.0452 36.8744 29.3671 35.8299 29.3671Z" fill="black"/>
<path d="M35.084 41.1811C31.2345 41.1811 28.0189 40.9117 25.5259 40.3763C22.2085 39.6439 20.3658 38.3071 20.0472 36.4119C19.6728 33.3999 19.479 30.0299 19.479 26.4169C19.479 21.1123 19.8732 15.9654 20.645 11.1207C20.8322 10.2995 21.1738 9.73129 21.6797 9.38641C22.2151 9.02183 22.7176 8.83789 23.1741 8.83789H36.5982C39.3375 8.83789 41.7944 9.46853 43.9031 10.7068C46.0052 11.9451 47.677 13.7385 48.8726 16.0377C50.0781 18.3533 50.6857 21.1747 50.6857 24.4199C50.6857 29.4519 49.4803 33.482 47.1055 36.3954C44.5074 39.5716 40.4608 41.1811 35.0807 41.1811H35.084ZM36.0234 12.625C35.0643 12.625 34.3384 12.8582 33.8687 13.318C33.3892 13.7877 33.1527 14.5465 33.1527 15.6402L33.1757 28.1512C33.1757 28.9559 33.3465 29.557 33.6979 29.984C34.0789 30.4537 34.7785 30.6836 35.8296 30.6836C37.2584 30.6836 38.4014 30.1975 39.2258 29.2417C39.9912 28.3515 40.5397 27.1789 40.8484 25.7534C41.1473 24.3903 41.2951 22.8991 41.2951 21.3193C41.2951 19.4865 41.0586 17.9197 40.5922 16.665C40.1127 15.3808 39.4788 14.3855 38.7003 13.7056C37.8825 12.9929 36.9792 12.6283 36.0201 12.6283L36.0234 12.625Z" fill="black"/>
<path d="M35.5013 29.038C34.5717 29.038 34.3944 28.8311 34.3878 28.8245C34.2433 28.6471 34.1612 28.2891 34.1612 27.8194L34.1382 15.3085C34.1382 14.3789 34.3385 14.0439 34.4568 13.929C34.6703 13.722 35.0973 13.6104 35.6951 13.6104C36.3388 13.6104 36.9334 13.8567 37.5114 14.3625C38.1224 14.8946 38.6348 15.7125 39.0355 16.7898C39.4461 17.8967 39.6563 19.3091 39.6563 20.9875C39.6563 22.4721 39.515 23.8714 39.2391 25.1425C38.9764 26.3512 38.5264 27.33 37.9023 28.0526C37.3308 28.7161 36.5458 29.038 35.5013 29.038Z" fill="black"/>
<path d="M34.7549 40.852C30.9054 40.852 27.6898 40.5826 25.1968 40.0472C21.8794 39.3148 20.0367 37.978 19.7181 36.0828C19.3437 33.0708 19.1499 29.7008 19.1499 26.0878C19.1499 20.7832 19.5441 15.6363 20.3159 10.7916C20.5031 9.97042 20.8447 9.40219 21.3506 9.05731C21.886 8.69273 22.3885 8.50879 22.845 8.50879H36.2691C39.0084 8.50879 41.4653 9.13943 43.574 10.3777C45.6761 11.616 47.3479 13.4094 48.5435 15.7086C49.749 18.0242 50.3566 20.8456 50.3566 24.0908C50.3566 29.1228 49.1512 33.1529 46.7764 36.0663C44.1783 39.2425 40.1317 40.852 34.7516 40.852H34.7549ZM35.6943 12.2959C34.7352 12.2959 34.0093 12.5291 33.5396 12.9889C33.0601 13.4586 32.8236 14.2174 32.8236 15.3111L32.8466 27.8221C32.8466 28.6268 33.0174 29.2279 33.3688 29.6549C33.7498 30.1246 34.4494 30.3545 35.5005 30.3545C36.9293 30.3545 38.0723 29.8684 38.8967 28.9125C39.6621 28.0224 40.2106 26.8498 40.5193 25.4243C40.8182 24.0612 40.966 22.57 40.966 20.9902C40.966 19.1574 40.7295 17.5906 40.2631 16.3359C39.7836 15.0517 39.1497 14.0564 38.3712 13.3765C37.5534 12.6638 36.6501 12.2992 35.691 12.2992L35.6943 12.2959Z" fill="black"/>
<path d="M35.1727 28.7099C34.2431 28.7099 34.0658 28.5029 34.0592 28.4964C33.9147 28.319 33.8326 27.961 33.8326 27.4913L33.8096 14.9803C33.8096 14.0508 34.0099 13.7158 34.1282 13.6008C34.3417 13.3939 34.7687 13.2822 35.3665 13.2822C36.0102 13.2822 36.6047 13.5286 37.1828 14.0344C37.7938 14.5665 38.3061 15.3844 38.7069 16.4617C39.1174 17.5686 39.3277 18.981 39.3277 20.6594C39.3277 22.144 39.1864 23.5432 38.9105 24.8144C38.6477 26.0231 38.1978 27.0019 37.5737 27.7245C37.0022 28.388 36.2172 28.7099 35.1727 28.7099Z" fill="black"/>
<path d="M34.4268 40.5238C30.5773 40.5238 27.3617 40.2545 24.8687 39.7191C21.5513 38.9867 19.7086 37.6498 19.39 35.7546C19.0156 32.7427 18.8218 29.3727 18.8218 25.7597C18.8218 20.4551 19.2159 15.3082 19.9878 10.4634C20.175 9.6423 20.5166 9.07407 21.0224 8.72919C21.5578 8.3646 22.0604 8.18066 22.5169 8.18066H35.941C38.6803 8.18066 41.1372 8.8113 43.2459 10.0496C45.348 11.2879 47.0198 13.0812 48.2154 15.3804C49.4208 17.6961 50.0285 20.5175 50.0285 23.7627C50.0285 28.7946 48.8231 32.8248 46.4483 35.7382C43.8502 38.9144 39.8036 40.5238 34.4235 40.5238H34.4268ZM35.3662 11.9678C34.4071 11.9678 33.6812 12.201 33.2115 12.6608C32.7319 13.1305 32.4954 13.8892 32.4954 14.983L32.5184 27.4939C32.5184 28.2987 32.6892 28.8997 33.0407 29.3267C33.4217 29.7964 34.1213 30.0264 35.1724 30.0264C36.6012 30.0264 37.7442 29.5402 38.5686 28.5844C39.3339 27.6943 39.8824 26.5217 40.1912 25.0962C40.4901 23.7331 40.6379 22.2419 40.6379 20.662C40.6379 18.8292 40.4014 17.2625 39.935 16.0078C39.4555 14.7235 38.8215 13.7283 38.0431 13.0484C37.2252 12.3356 36.322 11.9711 35.3629 11.9711L35.3662 11.9678Z" fill="black"/>
<path d="M34.4268 40.5238C30.5773 40.5238 27.3617 40.2545 24.8687 39.7191C21.5513 38.9867 19.7086 37.6498 19.39 35.7546C19.0156 32.7427 18.8218 29.3727 18.8218 25.7597C18.8218 20.4551 19.2159 15.3082 19.9878 10.4634C20.175 9.6423 20.5166 9.07407 21.0224 8.72919C21.5578 8.3646 22.0604 8.18066 22.5169 8.18066H35.941C38.6803 8.18066 41.1372 8.8113 43.2459 10.0496C45.348 11.2879 47.0198 13.0812 48.2154 15.3804C49.4208 17.6961 50.0285 20.5175 50.0285 23.7627C50.0285 28.7946 48.8231 32.8248 46.4483 35.7382C43.8502 38.9144 39.8036 40.5238 34.4235 40.5238H34.4268ZM35.3662 11.9678C34.4071 11.9678 33.6812 12.201 33.2115 12.6608C32.7319 13.1305 32.4954 13.8892 32.4954 14.983L32.5184 27.4939C32.5184 28.2987 32.6892 28.8997 33.0407 29.3267C33.4217 29.7964 34.1213 30.0264 35.1724 30.0264C36.6012 30.0264 37.7442 29.5402 38.5686 28.5844C39.3339 27.6943 39.8824 26.5217 40.1912 25.0962C40.4901 23.7331 40.6379 22.2419 40.6379 20.662C40.6379 18.8292 40.4014 17.2625 39.935 16.0078C39.4555 14.7235 38.8215 13.7283 38.0431 13.0484C37.2252 12.3356 36.322 11.9711 35.3629 11.9711L35.3662 11.9678Z" fill="#F5F5F5"/>
<mask id="path-68-inside-1_169_14134" fill="white">
<path d="M10.2989 42.0676C11.9773 42.7867 13.9209 42.0091 14.6401 40.3306C13.9209 42.0091 14.6986 43.9527 16.377 44.6719C14.6986 43.9527 12.7549 44.7304 12.0358 46.4088C12.7549 44.7304 11.9773 42.7867 10.2989 42.0676Z"/>
</mask>
<path d="M10.2989 42.0676C11.9773 42.7867 13.9209 42.0091 14.6401 40.3306C13.9209 42.0091 14.6986 43.9527 16.377 44.6719C14.6986 43.9527 12.7549 44.7304 12.0358 46.4088C12.7549 44.7304 11.9773 42.7867 10.2989 42.0676Z" fill="#F5F5F5"/>
<path d="M20.865 41.559C22.2148 38.4088 20.7553 34.7607 17.605 33.4109C14.4547 32.0612 10.8067 33.5207 9.4569 36.671L20.865 41.559ZM8.93604 37.8866C7.58624 41.0369 9.04581 44.6849 12.1961 46.0347C15.3463 47.3845 18.9944 45.9249 20.3442 42.7747L8.93604 37.8866ZM7.85484 47.7716C11.0051 49.1214 14.6531 47.6619 16.0029 44.5116C17.3527 41.3613 15.8932 37.7133 12.7429 36.3635L7.85484 47.7716ZM11.5273 35.8426C8.37699 34.4928 4.72897 35.9524 3.37917 39.1027C2.02937 42.2529 3.48894 45.901 6.63921 47.2508L11.5273 35.8426ZM18.821 38.9678C15.6708 37.618 12.0228 39.0776 10.673 42.2279C9.32317 45.3781 10.7827 49.0261 13.933 50.3759L18.821 38.9678ZM15.1486 50.8968C18.2989 52.2466 21.9469 50.787 23.2967 47.6368C24.6465 44.4865 23.1869 40.8385 20.0367 39.4887L15.1486 50.8968ZM5.81086 45.1804C4.46107 48.3307 5.92064 51.9787 9.0709 53.3285C12.2212 54.6783 15.8692 53.2187 17.219 50.0685L5.81086 45.1804ZM17.7398 48.8528C19.0896 45.7026 17.6301 42.0545 14.4798 40.7047C11.3295 39.3549 7.68152 40.8145 6.33173 43.9648L17.7398 48.8528ZM9.4569 36.671L8.93604 37.8866L20.3442 42.7747L20.865 41.559L9.4569 36.671ZM12.7429 36.3635L11.5273 35.8426L6.63921 47.2508L7.85484 47.7716L12.7429 36.3635ZM13.933 50.3759L15.1486 50.8968L20.0367 39.4887L18.821 38.9678L13.933 50.3759ZM17.219 50.0685L17.7398 48.8528L6.33173 43.9648L5.81086 45.1804L17.219 50.0685ZM26.0482 45.2187C28.7478 38.9182 25.8287 31.6221 19.5281 28.9225C13.2276 26.2229 5.93157 29.1421 3.23198 35.4426L26.0482 45.2187ZM15.1869 30.6594C8.88638 27.9599 1.59033 30.879 -1.10926 37.1795C-3.80885 43.4801 -0.889714 50.7761 5.41082 53.4757L15.1869 30.6594ZM11.489 56.08C17.7895 58.7796 25.0856 55.8605 27.7851 49.5599C30.4847 43.2594 27.5656 35.9633 21.2651 33.2638L11.489 56.08ZM0.627664 41.5208C-2.07193 47.8213 0.84721 55.1173 7.14774 57.8169C13.4483 60.5165 20.7443 57.5974 23.4439 51.2968L0.627664 41.5208ZM3.23198 35.4426C5.21241 30.8205 10.5648 28.679 15.1869 30.6594L5.41082 53.4757C13.3898 56.8944 22.6295 53.1977 26.0482 45.2187L3.23198 35.4426ZM3.23198 35.4426C-0.186777 43.4216 3.51001 52.6612 11.489 56.08L21.2651 33.2638C25.8872 35.2442 28.0287 40.5966 26.0482 45.2187L3.23198 35.4426ZM23.4439 51.2968C26.8627 43.3179 23.1659 34.0782 15.1869 30.6594L5.41082 53.4757C0.788725 51.4953 -1.35277 46.1429 0.627664 41.5208L23.4439 51.2968ZM23.4439 51.2968C21.4635 55.9189 16.1111 58.0604 11.489 56.08L21.2651 33.2638C13.2861 29.845 4.04642 33.5418 0.627664 41.5208L23.4439 51.2968Z" fill="white" mask="url(#path-68-inside-1_169_14134)"/>
<mask id="path-70-inside-2_169_14134" fill="white">
<path d="M57.2077 9.38057C58.2723 9.96727 59.611 9.57983 60.1977 8.51518C59.611 9.57983 59.9984 10.9185 61.0631 11.5052C59.9984 10.9185 58.6598 11.306 58.0731 12.3706C58.6598 11.306 58.2723 9.96727 57.2077 9.38057Z"/>
</mask>
<path d="M57.2077 9.38057C58.2723 9.96727 59.611 9.57983 60.1977 8.51518C59.611 9.57983 59.9984 10.9185 61.0631 11.5052C59.9984 10.9185 58.6598 11.306 58.0731 12.3706C58.6598 11.306 58.2723 9.96727 57.2077 9.38057Z" fill="#F5F5F5"/>
<path d="M63.8836 9.54115C64.8761 7.74016 64.2207 5.4756 62.4197 4.48311C60.6187 3.49062 58.3541 4.14604 57.3616 5.94703L63.8836 9.54115ZM56.9367 6.71812C55.9442 8.51911 56.5996 10.7837 58.4006 11.7762C60.2016 12.7686 62.4662 12.1132 63.4587 10.3122L56.9367 6.71812ZM55.4106 12.6416C57.2116 13.634 59.4762 12.9786 60.4686 11.1776C61.4611 9.37664 60.8057 7.11207 59.0047 6.11958L55.4106 12.6416ZM58.2336 5.69465C56.4326 4.70217 54.1681 5.35759 53.1756 7.15858C52.1831 8.95957 52.8385 11.2241 54.6395 12.2166L58.2336 5.69465ZM62.8602 8.24423C61.0592 7.25174 58.7946 7.90717 57.8021 9.70816C56.8096 11.5091 57.465 13.7737 59.266 14.7662L62.8602 8.24423ZM60.0371 15.1911C61.8381 16.1836 64.1027 15.5282 65.0952 13.7272C66.0877 11.9262 65.4322 9.66165 63.6312 8.66916L60.0371 15.1911ZM54.3871 11.3446C53.3946 13.1456 54.0501 15.4102 55.8511 16.4027C57.6521 17.3952 59.9166 16.7397 60.9091 14.9388L54.3871 11.3446ZM61.334 14.1677C62.3265 12.3667 61.6711 10.1021 59.8701 9.10963C58.0691 8.11714 55.8046 8.77256 54.8121 10.5735L61.334 14.1677ZM57.3616 5.94703L56.9367 6.71812L63.4587 10.3122L63.8836 9.54115L57.3616 5.94703ZM59.0047 6.11958L58.2336 5.69465L54.6395 12.2166L55.4106 12.6416L59.0047 6.11958ZM59.266 14.7662L60.0371 15.1911L63.6312 8.66916L62.8602 8.24423L59.266 14.7662ZM60.9091 14.9388L61.334 14.1677L54.8121 10.5735L54.3871 11.3446L60.9091 14.9388ZM66.7197 12.1093C68.7046 8.50731 67.3938 3.97819 63.7918 1.99321C60.1898 0.00823085 55.6607 1.31907 53.6757 4.92106L66.7197 12.1093ZM60.8018 2.8586C57.1998 0.873622 52.6707 2.18446 50.6857 5.78645C48.7007 9.38843 50.0116 13.9176 53.6135 15.9025L60.8018 2.8586ZM57.469 18.0272C61.071 20.0122 65.6001 18.7013 67.5851 15.0993C69.57 11.4974 68.2592 6.96823 64.6572 4.98325L57.469 18.0272ZM51.5511 8.77649C49.5661 12.3785 50.8769 16.9076 54.4789 18.8926C58.0809 20.8776 62.61 19.5667 64.595 15.9647L51.5511 8.77649ZM53.6757 4.92106C55.074 2.38372 58.2644 1.46033 60.8018 2.8586L53.6135 15.9025C58.2802 18.4742 64.148 16.7759 66.7197 12.1093L53.6757 4.92106ZM53.6757 4.92106C51.104 9.58769 52.8023 15.4555 57.469 18.0272L64.6572 4.98325C67.1945 6.38152 68.1179 9.57196 66.7197 12.1093L53.6757 4.92106ZM64.595 15.9647C67.1667 11.2981 65.4684 5.43028 60.8018 2.8586L53.6135 15.9025C51.0762 14.5043 50.1528 11.3138 51.5511 8.77649L64.595 15.9647ZM64.595 15.9647C63.1967 18.5021 60.0063 19.4255 57.469 18.0272L64.6572 4.98325C59.9906 2.41157 54.1228 4.10986 51.5511 8.77649L64.595 15.9647Z" fill="white" mask="url(#path-70-inside-2_169_14134)"/>
</svg>
